<svg width="2350" height="1168" xmlns="http://www.w3.org/2000/svg" xmlns:xlink="http://www.w3.org/1999/xlink" overflow="hidden"><defs><clipPath id="clip0"><rect x="-4" y="-4" width="2350" height="1168"/></clipPath></defs><g clip-path="url(#clip0)" transform="translate(4 4)"><rect x="1338.5" y="25.4999" width="355" height="241" stroke="#000000" stroke-width="3.4375" stroke-linecap="butt" stroke-linejoin="round" stroke-miterlimit="10" stroke-opacity="1" fill="#CFE2F3" fill-opacity="1"/><text fill="#000000" fill-opacity="1" font-family="Arial,Arial_MSFontService,sans-serif" font-style="normal" font-variant="normal" font-weight="400" font-stretch="normal" font-size="64" text-anchor="start" direction="ltr" writing-mode="lr-tb" unicode-bidi="normal" text-decoration="none" transform="matrix(1 0 0 1 1447.78 125)">User <tspan fill="#000000" fill-opacity="1" font-family="Arial,Arial_MSFontService,sans-serif" font-style="normal" font-variant="normal" font-weight="400" font-stretch="normal" font-size="64" text-anchor="start" direction="ltr" writing-mode="lr-tb" unicode-bidi="normal" text-decoration="none" x="-39.2562" y="84">Service</tspan></text><rect x="40.5001" y="712.5" width="339" height="395" stroke="#000000" stroke-width="3.4375" stroke-linecap="butt" stroke-linejoin="round" stroke-miterlimit="10" stroke-opacity="1" fill="#CFE2F3" fill-opacity="1"/><text fill="#000000" fill-opacity="1" font-family="Arial,Arial_MSFontService,sans-serif" font-style="normal" font-variant="normal" font-weight="400" font-stretch="normal" font-size="55" text-anchor="start" direction="ltr" writing-mode="lr-tb" unicode-bidi="normal" text-decoration="none" transform="matrix(1 0 0 1 128.211 928)">Mobile</text><rect x="558.5" y="483.5" width="396" height="229" stroke="#000000" stroke-width="3.4375" stroke-linecap="butt" stroke-linejoin="round" stroke-miterlimit="10" stroke-opacity="1" fill="#CFE2F3" fill-opacity="1"/><text fill="#000000" fill-opacity="1" font-family="Arial,Arial_MSFontService,sans-serif" font-style="normal" font-variant="normal" font-weight="400" font-stretch="normal" font-size="55" text-anchor="start" direction="ltr" writing-mode="lr-tb" unicode-bidi="normal" text-decoration="none" transform="matrix(1 0 0 1 595.3 616)">API Gateway</text><rect x="0.499836" y="25.4999" width="354" height="196" stroke="#000000" stroke-width="3.4375" stroke-linecap="butt" stroke-linejoin="round" stroke-miterlimit="10" stroke-opacity="1" fill="#CFE2F3" fill-opacity="1"/><text fill="#000000" fill-opacity="1" font-family="Arial,Arial_MSFontService,sans-serif" font-style="normal" font-variant="normal" font-weight="400" font-stretch="normal" font-size="55" text-anchor="start" direction="ltr" writing-mode="lr-tb" unicode-bidi="normal" text-decoration="none" transform="matrix(1 0 0 1 76.2898 142)">Browser</text><rect x="1339.5" y="500.5" width="354" height="221" stroke="#000000" stroke-width="3.4375" stroke-linecap="butt" stroke-linejoin="round" stroke-miterlimit="10" stroke-opacity="1" fill="#CFE2F3" fill-opacity="1"/><text fill="#000000" fill-opacity="1" font-family="Arial,Arial_MSFontService,sans-serif" font-style="normal" font-variant="normal" font-weight="400" font-stretch="normal" font-size="55" text-anchor="start" direction="ltr" writing-mode="lr-tb" unicode-bidi="normal" text-decoration="none" transform="matrix(1 0 0 1 1404.06 593)">Business <tspan fill="#000000" fill-opacity="1" font-family="Arial,Arial_MSFontService,sans-serif" font-style="normal" font-variant="normal" font-weight="400" font-stretch="normal" font-size="55" text-anchor="start" direction="ltr" writing-mode="lr-tb" unicode-bidi="normal" text-decoration="none" x="19.8917" y="72">Service</tspan></text><rect x="1328.5" y="910.5" width="354" height="220" stroke="#000000" stroke-width="3.4375" stroke-linecap="butt" stroke-linejoin="round" stroke-miterlimit="10" stroke-opacity="1" fill="#CFE2F3" fill-opacity="1"/><text fill="#000000" fill-opacity="1" font-family="Arial,Arial_MSFontService,sans-serif" font-style="normal" font-variant="normal" font-weight="400" font-stretch="normal" font-size="55" text-anchor="start" direction="ltr" writing-mode="lr-tb" unicode-bidi="normal" text-decoration="none" transform="matrix(1 0 0 1 1391.52 1002)">Inventory <tspan fill="#000000" fill-opacity="1" font-family="Arial,Arial_MSFontService,sans-serif" font-style="normal" font-variant="normal" font-weight="400" font-stretch="normal" font-size="55" text-anchor="start" direction="ltr" writing-mode="lr-tb" unicode-bidi="normal" text-decoration="none" x="21.427" y="72">Service</tspan></text><path d="M2078.5 33.6248C2078.5 51.9191 2137.82 66.7497 2211 66.7497 2284.18 66.7497 2343.5 51.9191 2343.5 33.6248L2343.5 233.375C2343.5 251.669 2284.18 266.5 2211 266.5 2137.82 266.5 2078.5 251.669 2078.5 233.375Z" fill="#CFE2F3" fill-rule="evenodd" fill-opacity="1"/><path d="M2078.5 33.6248C2078.5 15.3304 2137.82 0.499836 2211 0.499836 2284.18 0.499836 2343.5 15.3304 2343.5 33.6248 2343.5 51.9191 2284.18 66.7497 2211 66.7497 2137.82 66.7497 2078.5 51.9191 2078.5 33.6248Z" fill="#E2EEF8" fill-rule="evenodd" fill-opacity="1"/><path d="M2343.5 33.6248C2343.5 51.9191 2284.18 66.7497 2211 66.7497 2137.82 66.7497 2078.5 51.9191 2078.5 33.6248 2078.5 15.3304 2137.82 0.499836 2211 0.499836 2284.18 0.499836 2343.5 15.3304 2343.5 33.6248L2343.5 233.375C2343.5 251.669 2284.18 266.5 2211 266.5 2137.82 266.5 2078.5 251.669 2078.5 233.375L2078.5 33.6248" stroke="#000000" stroke-width="3.4375" stroke-linecap="butt" stroke-linejoin="round" stroke-miterlimit="10" stroke-opacity="1" fill="none" fill-rule="evenodd"/><text fill="#000000" fill-opacity="1" font-family="Arial,Arial_MSFontService,sans-serif" font-style="normal" font-variant="normal" font-weight="400" font-stretch="normal" font-size="46" text-anchor="start" direction="ltr" writing-mode="lr-tb" unicode-bidi="normal" text-decoration="none" transform="matrix(1 0 0 1 2123.51 164)">User DB</text><path d="M2077.5 508.75C2077.5 527.113 2137.05 542 2210.5 542 2283.95 542 2343.5 527.113 2343.5 508.75L2343.5 758.25C2343.5 776.614 2283.95 791.5 2210.5 791.5 2137.05 791.5 2077.5 776.614 2077.5 758.25Z" fill="#CFE2F3" fill-rule="evenodd" fill-opacity="1"/><path d="M2077.5 508.75C2077.5 490.386 2137.05 475.5 2210.5 475.5 2283.95 475.5 2343.5 490.386 2343.5 508.75 2343.5 527.113 2283.95 542 2210.5 542 2137.05 542 2077.5 527.113 2077.5 508.75Z" fill="#E2EEF8" fill-rule="evenodd" fill-opacity="1"/><path d="M2343.5 508.75C2343.5 527.113 2283.95 542 2210.5 542 2137.05 542 2077.5 527.113 2077.5 508.75 2077.5 490.386 2137.05 475.5 2210.5 475.5 2283.95 475.5 2343.5 490.386 2343.5 508.75L2343.5 758.25C2343.5 776.614 2283.95 791.5 2210.5 791.5 2137.05 791.5 2077.5 776.614 2077.5 758.25L2077.5 508.75" stroke="#000000" stroke-width="3.4375" stroke-linecap="butt" stroke-linejoin="round" stroke-miterlimit="10" stroke-opacity="1" fill="none" fill-rule="evenodd"/><text fill="#000000" fill-opacity="1" font-family="Arial,Arial_MSFontService,sans-serif" font-style="normal" font-variant="normal" font-weight="400" font-stretch="normal" font-size="46" text-anchor="start" direction="ltr" writing-mode="lr-tb" unicode-bidi="normal" text-decoration="none" transform="matrix(1 0 0 1 2116.96 634)">Business <tspan fill="#000000" fill-opacity="1" font-family="Arial,Arial_MSFontService,sans-serif" font-style="normal" font-variant="normal" font-weight="400" font-stretch="normal" font-size="46" text-anchor="start" direction="ltr" writing-mode="lr-tb" unicode-bidi="normal" text-decoration="none" x="61.1419" y="61">DB</tspan></text><path d="M2070.5 918.625C2070.5 937.472 2131.61 952.75 2207 952.75 2282.39 952.75 2343.5 937.472 2343.5 918.625L2343.5 1126.38C2343.5 1145.22 2282.39 1160.5 2207 1160.5 2131.61 1160.5 2070.5 1145.22 2070.5 1126.38Z" fill="#CFE2F3" fill-rule="evenodd" fill-opacity="1"/><path d="M2070.5 918.625C2070.5 899.778 2131.61 884.5 2207 884.5 2282.39 884.5 2343.5 899.778 2343.5 918.625 2343.5 937.472 2282.39 952.75 2207 952.75 2131.61 952.75 2070.5 937.472 2070.5 918.625Z" fill="#E2EEF8" fill-rule="evenodd" fill-opacity="1"/><path d="M2343.5 918.625C2343.5 937.472 2282.39 952.75 2207 952.75 2131.61 952.75 2070.5 937.472 2070.5 918.625 2070.5 899.778 2131.61 884.5 2207 884.5 2282.39 884.5 2343.5 899.778 2343.5 918.625L2343.5 1126.38C2343.5 1145.22 2282.39 1160.5 2207 1160.5 2131.61 1160.5 2070.5 1145.22 2070.5 1126.38L2070.5 918.625" stroke="#000000" stroke-width="3.4375" stroke-linecap="butt" stroke-linejoin="round" stroke-miterlimit="10" stroke-opacity="1" fill="none" fill-rule="evenodd"/><text fill="#000000" fill-opacity="1" font-family="Arial,Arial_MSFontService,sans-serif" font-style="normal" font-variant="normal" font-weight="400" font-stretch="normal" font-size="46" text-anchor="start" direction="ltr" writing-mode="lr-tb" unicode-bidi="normal" text-decoration="none" transform="matrix(1 0 0 1 2112.19 1023)">Inventory <tspan fill="#000000" fill-opacity="1" font-family="Arial,Arial_MSFontService,sans-serif" font-style="normal" font-variant="normal" font-weight="400" font-stretch="normal" font-size="46" text-anchor="start" direction="ltr" writing-mode="lr-tb" unicode-bidi="normal" text-decoration="none" x="62.4248" y="61">DB</tspan></text><path d="M363.305 139.673 552.407 580.684 549.248 582.039 360.146 141.028ZM361.725 140.35 352.7 154.193 354.5 123.5 377.975 143.356ZM550.828 581.361 559.852 567.517 558.053 598.211 534.578 578.355Z" fill="#000000" fill-rule="nonzero" fill-opacity="1"/><path d="M12.0999 13.8811 169.958 233.381 167.167 235.388 9.30918 15.8881ZM10.7041 14.884 4.89318 30.3541 0 0 27.2192 14.2979ZM168.562 234.385 174.373 218.915 179.266 249.269 152.047 234.971Z" fill="#000000" fill-rule="nonzero" fill-opacity="1" transform="matrix(1 0 0 -1 379.5 847.769)"/><path d="M12.8798 13.1579 374.639 459.387 371.968 461.552 10.2095 15.3227ZM11.5454 14.2413 6.63719 30.021 0 0 27.9991 12.7028ZM373.303 460.469 378.212 444.69 384.849 474.711 356.85 462.008Z" fill="#000000" fill-rule="nonzero" fill-opacity="1" transform="matrix(1 -1.22465e-16 -1.22465e-16 -1 954.5 598.211)"/><path d="M972.834 596.781 1321.02 596.782 1321.02 600.219 972.834 600.219ZM972.833 598.5 982 612.25 954.5 598.5 982 584.75ZM1321.02 598.5 1311.85 584.75 1339.35 598.5 1311.85 612.25Z" fill="#000000" fill-rule="nonzero" fill-opacity="1"/><path d="M968.129 610.882 1317.24 993.362 1314.7 995.68 965.591 613.2ZM966.86 612.041 962.884 628.081 954.5 598.5 983.195 609.541ZM1315.97 994.521 1319.95 978.481 1328.33 1008.06 1299.64 997.021Z" fill="#000000" fill-rule="nonzero" fill-opacity="1"/><path d="M1711.83 121.781 2060.02 121.781 2060.02 125.219 1711.83 125.219ZM1711.83 123.5 1721 137.25 1693.5 123.5 1721 109.75ZM2060.02 123.5 2050.85 109.75 2078.35 123.5 2050.85 137.25Z" fill="#000000" fill-rule="nonzero" fill-opacity="1"/><path d="M1711.83 596.781 2060.02 596.782 2060.02 600.219 1711.83 600.219ZM1711.83 598.5 1721 612.25 1693.5 598.5 1721 584.75ZM2060.02 598.5 2050.85 584.75 2078.35 598.5 2050.85 612.25Z" fill="#000000" fill-rule="nonzero" fill-opacity="1"/><path d="M1700.83 1005.78 2052.71 1005.78 2052.71 1009.22 1700.83 1009.22ZM1700.83 1007.5 1710 1021.25 1682.5 1007.5 1710 993.75ZM2052.71 1007.5 2043.55 993.75 2071.05 1007.5 2043.55 1021.25Z" fill="#000000" fill-rule="nonzero" fill-opacity="1"/></g></svg>